ply
format ascii 1.0
comment https://github.com/mikedh/trimesh
element vertex 8
property float x
property float y
property float z
element face 12
property list uchar int vertex_indices
end_header
-0.50000000 -0.50000000 -0.50000000
-0.50000000 -0.50000000 0.50000000
-0.50000000 0.50000000 -0.50000000
-0.50000000 0.50000000 0.50000000
0.50000000 -0.50000000 -0.50000000
0.50000000 -0.50000000 0.50000000
0.50000000 0.50000000 -0.50000000
0.50000000 0.50000000 0.50000000
3 1 3 0
3 4 1 0
3 0 3 2
3 2 4 0
3 1 7 3
3 5 1 4
3 5 7 1
3 3 7 2
3 6 4 2
3 2 7 6
3 6 5 4
3 7 5 6