ply
format ascii 1.0
comment https://github.com/mikedh/trimesh
element vertex 642
property float x
property float y
property float z
element face 1280
property list uchar int vertex_indices
end_header
-0.26286554 0.42532539 0.00000000
0.26286554 0.42532539 0.00000000
-0.26286554 -0.42532539 0.00000000
0.26286554 -0.42532539 0.00000000
0.00000000 -0.26286554 0.42532539
0.00000000 0.26286554 0.42532539
0.00000000 -0.26286554 -0.42532539
0.00000000 0.26286554 -0.42532539
0.42532539 0.00000000 -0.26286554
0.42532539 0.00000000 0.26286554
-0.42532539 0.00000000 -0.26286554
-0.42532539 0.00000000 0.26286554
0.00000000 0.50000000 0.00000000
0.00000000 -0.50000000 0.00000000
-0.15450850 -0.40450850 0.25000000
0.15450850 -0.40450850 0.25000000
-0.15450850 0.40450850 0.25000000
0.15450850 0.40450850 0.25000000
0.00000000 0.00000000 0.50000000
-0.15450850 -0.40450850 -0.25000000
0.15450850 -0.40450850 -0.25000000
-0.15450850 0.40450850 -0.25000000
0.15450850 0.40450850 -0.25000000
0.00000000 0.00000000 -0.50000000
0.40450850 0.25000000 -0.15450850
0.40450850 -0.25000000 -0.15450850
0.25000000 -0.15450850 -0.40450850
0.25000000 0.15450850 -0.40450850
0.40450850 0.25000000 0.15450850
0.40450850 -0.25000000 0.15450850
0.25000000 -0.15450850 0.40450850
0.25000000 0.15450850 0.40450850
0.50000000 0.00000000 0.00000000
-0.40450850 0.25000000 -0.15450850
-0.40450850 -0.25000000 -0.15450850
-0.25000000 -0.15450850 -0.40450850
-0.25000000 0.15450850 -0.40450850
-0.40450850 0.25000000 0.15450850
-0.40450850 -0.25000000 0.15450850
-0.25000000 -0.15450850 0.40450850
-0.25000000 0.15450850 0.40450850
-0.50000000 0.00000000 0.00000000
-0.13663326 0.48096919 0.00000000
0.13663326 0.48096919 0.00000000
-0.13663326 -0.48096919 0.00000000
0.13663326 -0.48096919 0.00000000
-0.21694428 -0.43133423 0.12994596
-0.08031102 -0.34689024 0.35102323
-0.08122993 -0.47552827 0.13143277
0.21694428 -0.43133423 0.12994596
0.08031102 -0.34689024 0.35102323
0.08122993 -0.47552827 0.13143277
0.00000000 -0.42532539 0.26286554
-0.21694428 0.43133423 0.12994596
-0.08031102 0.34689024 0.35102323
-0.08122993 0.47552827 0.13143277
0.21694428 0.43133423 0.12994596
0.08031102 0.34689024 0.35102323
0.08122993 0.47552827 0.13143277
0.00000000 0.42532539 0.26286554
0.00000000 -0.13663326 0.48096919
0.00000000 0.13663326 0.48096919
-0.21694428 -0.43133423 -0.12994596
-0.08031102 -0.34689024 -0.35102323
-0.08122993 -0.47552827 -0.13143277
0.21694428 -0.43133423 -0.12994596
0.08031102 -0.34689024 -0.35102323
0.08122993 -0.47552827 -0.13143277
0.00000000 -0.42532539 -0.26286554
-0.21694428 0.43133423 -0.12994596
-0.08031102 0.34689024 -0.35102323
-0.08122993 0.47552827 -0.13143277
0.21694428 0.43133423 -0.12994596
0.08031102 0.34689024 -0.35102323
0.08122993 0.47552827 -0.13143277
0.00000000 0.42532539 -0.26286554
0.00000000 -0.13663326 -0.48096919
0.00000000 0.13663326 -0.48096919
0.34689024 0.35102323 -0.08031102
0.43133423 0.12994596 -0.21694428
0.29389262 0.34409547 -0.21266270
0.34689024 -0.35102323 -0.08031102
0.43133423 -0.12994596 -0.21694428
0.29389262 -0.34409547 -0.21266270
0.12994596 -0.21694428 -0.43133423
0.35102323 -0.08031102 -0.34689024
0.21266270 -0.29389262 -0.34409547
0.13143277 -0.08122993 -0.47552827
0.34409547 -0.21266270 -0.29389262
0.12994596 0.21694428 -0.43133423
0.35102323 0.08031102 -0.34689024
0.21266270 0.29389262 -0.34409547
0.13143277 0.08122993 -0.47552827
0.34409547 0.21266270 -0.29389262
0.26286554 0.00000000 -0.42532539
0.34689024 0.35102323 0.08031102
0.43133423 0.12994596 0.21694428
0.29389262 0.34409547 0.21266270
0.42532539 0.26286554 0.00000000
0.34689024 -0.35102323 0.08031102
0.43133423 -0.12994596 0.21694428
0.29389262 -0.34409547 0.21266270
0.42532539 -0.26286554 0.00000000
0.12994596 -0.21694428 0.43133423
0.35102323 -0.08031102 0.34689024
0.21266270 -0.29389262 0.34409547
0.13143277 -0.08122993 0.47552827
0.34409547 -0.21266270 0.29389262
0.12994596 0.21694428 0.43133423
0.35102323 0.08031102 0.34689024
0.21266270 0.29389262 0.34409547
0.13143277 0.08122993 0.47552827
0.34409547 0.21266270 0.29389262
0.26286554 0.00000000 0.42532539
0.48096919 0.00000000 -0.13663326
0.48096919 0.00000000 0.13663326
0.47552827 0.13143277 -0.08122993
0.47552827 -0.13143277 -0.08122993
0.47552827 0.13143277 0.08122993
0.47552827 -0.13143277 0.08122993
-0.34689024 0.35102323 -0.08031102
-0.43133423 0.12994596 -0.21694428
-0.29389262 0.34409547 -0.21266270
-0.34689024 -0.35102323 -0.08031102
-0.43133423 -0.12994596 -0.21694428
-0.29389262 -0.34409547 -0.21266270
-0.12994596 -0.21694428 -0.43133423
-0.35102323 -0.08031102 -0.34689024
-0.21266270 -0.29389262 -0.34409547
-0.13143277 -0.08122993 -0.47552827
-0.34409547 -0.21266270 -0.29389262
-0.12994596 0.21694428 -0.43133423
-0.35102323 0.08031102 -0.34689024
-0.21266270 0.29389262 -0.34409547
-0.13143277 0.08122993 -0.47552827
-0.34409547 0.21266270 -0.29389262
-0.26286554 0.00000000 -0.42532539
-0.34689024 0.35102323 0.08031102
-0.43133423 0.12994596 0.21694428
-0.29389262 0.34409547 0.21266270
-0.42532539 0.26286554 0.00000000
-0.34689024 -0.35102323 0.08031102
-0.43133423 -0.12994596 0.21694428
-0.29389262 -0.34409547 0.21266270
-0.42532539 -0.26286554 0.00000000
-0.12994596 -0.21694428 0.43133423
-0.35102323 -0.08031102 0.34689024
-0.21266270 -0.29389262 0.34409547
-0.13143277 -0.08122993 0.47552827
-0.34409547 -0.21266270 0.29389262
-0.12994596 0.21694428 0.43133423
-0.35102323 0.08031102 0.34689024
-0.21266270 0.29389262 0.34409547
-0.13143277 0.08122993 0.47552827
-0.34409547 0.21266270 0.29389262
-0.26286554 0.00000000 0.42532539
-0.48096919 0.00000000 -0.13663326
-0.48096919 0.00000000 0.13663326
-0.47552827 0.13143277 -0.08122993
-0.47552827 -0.13143277 -0.08122993
-0.47552827 0.13143277 0.08122993
-0.47552827 -0.13143277 0.08122993
-0.20167768 0.45752171 0.00000000
-0.06897612 0.49521944 0.00000000
0.20167768 0.45752171 0.00000000
0.06897612 0.49521944 0.00000000
-0.20167768 -0.45752171 0.00000000
-0.06897612 -0.49521944 0.00000000
0.20167768 -0.45752171 0.00000000
0.06897612 -0.49521944 0.00000000
-0.24222082 -0.43246466 0.06560019
-0.18751928 -0.42195573 0.19180687
-0.17911440 -0.46215230 0.06582768
-0.04054315 -0.30782101 0.39192152
-0.11854316 -0.37932616 0.30341259
-0.04112123 -0.49384418 0.06653555
-0.11933847 -0.44550326 0.19309369
-0.11005852 -0.48319629 0.06639624
-0.15062945 -0.45812207 0.13204138
0.24222082 -0.43246466 0.06560019
0.18751928 -0.42195573 0.19180687
0.17911440 -0.46215230 0.06582768
0.04054315 -0.30782101 0.39192152
0.11854316 -0.37932616 0.30341259
0.00000000 -0.35145351 0.35564086
0.04112123 -0.49384418 0.06653555
0.11933847 -0.44550326 0.19309369
0.11005852 -0.48319629 0.06639624
0.00000000 -0.48193064 0.13320234
0.15062945 -0.45812207 0.13204138
-0.07821723 -0.42008895 0.25962925
0.07821723 -0.42008895 0.25962925
-0.04057093 -0.39010218 0.31011978
-0.04116179 -0.45649123 0.19980353
0.04057093 -0.39010218 0.31011978
0.04116179 -0.45649123 0.19980353
-0.24222082 0.43246466 0.06560019
-0.18751928 0.42195573 0.19180687
-0.17911440 0.46215230 0.06582768
-0.04054315 0.30782101 0.39192152
-0.11854316 0.37932616 0.30341259
-0.04112123 0.49384418 0.06653555
-0.11933847 0.44550326 0.19309369
-0.11005852 0.48319629 0.06639624
-0.15062945 0.45812207 0.13204138
0.24222082 0.43246466 0.06560019
0.18751928 0.42195573 0.19180687
0.17911440 0.46215230 0.06582768
0.04054315 0.30782101 0.39192152
0.11854316 0.37932616 0.30341259
0.00000000 0.35145351 0.35564086
0.04112123 0.49384418 0.06653555
0.11933847 0.44550326 0.19309369
0.11005852 0.48319629 0.06639624
0.00000000 0.48193064 0.13320234
0.15062945 0.45812207 0.13204138
-0.07821723 0.42008895 0.25962925
0.07821723 0.42008895 0.25962925
-0.04057093 0.39010218 0.31011978
-0.04116179 0.45649123 0.19980353
0.04057093 0.39010218 0.31011978
0.04116179 0.45649123 0.19980353
0.00000000 -0.20167768 0.45752171
0.00000000 -0.06897612 0.49521944
0.00000000 0.20167768 0.45752171
0.00000000 0.06897612 0.49521944
-0.24222082 -0.43246466 -0.06560019
-0.18751928 -0.42195573 -0.19180687
-0.17911440 -0.46215230 -0.06582768
-0.04054315 -0.30782101 -0.39192152
-0.11854316 -0.37932616 -0.30341259
-0.04112123 -0.49384418 -0.06653555
-0.11933847 -0.44550326 -0.19309369
-0.11005852 -0.48319629 -0.06639624
-0.15062945 -0.45812207 -0.13204138
0.24222082 -0.43246466 -0.06560019
0.18751928 -0.42195573 -0.19180687
0.17911440 -0.46215230 -0.06582768
0.04054315 -0.30782101 -0.39192152
0.11854316 -0.37932616 -0.30341259
0.00000000 -0.35145351 -0.35564086
0.04112123 -0.49384418 -0.06653555
0.11933847 -0.44550326 -0.19309369
0.11005852 -0.48319629 -0.06639624
0.00000000 -0.48193064 -0.13320234
0.15062945 -0.45812207 -0.13204138
-0.07821723 -0.42008895 -0.25962925
0.07821723 -0.42008895 -0.25962925
-0.04057093 -0.39010218 -0.31011978
-0.04116179 -0.45649123 -0.19980353
0.04057093 -0.39010218 -0.31011978
0.04116179 -0.45649123 -0.19980353
-0.24222082 0.43246466 -0.06560019
-0.18751928 0.42195573 -0.19180687
-0.17911440 0.46215230 -0.06582768
-0.04054315 0.30782101 -0.39192152
-0.11854316 0.37932616 -0.30341259
-0.04112123 0.49384418 -0.06653555
-0.11933847 0.44550326 -0.19309369
-0.11005852 0.48319629 -0.06639624
-0.15062945 0.45812207 -0.13204138
0.24222082 0.43246466 -0.06560019
0.18751928 0.42195573 -0.19180687
0.17911440 0.46215230 -0.06582768
0.04054315 0.30782101 -0.39192152
0.11854316 0.37932616 -0.30341259
0.00000000 0.35145351 -0.35564086
0.04112123 0.49384418 -0.06653555
0.11933847 0.44550326 -0.19309369
0.11005852 0.48319629 -0.06639624
0.00000000 0.48193064 -0.13320234
0.15062945 0.45812207 -0.13204138
-0.07821723 0.42008895 -0.25962925
0.07821723 0.42008895 -0.25962925
-0.04057093 0.39010218 -0.31011978
-0.04116179 0.45649123 -0.19980353
0.04057093 0.39010218 -0.31011978
0.04116179 0.45649123 -0.19980353
0.00000000 -0.20167768 -0.45752171
0.00000000 -0.06897612 -0.49521944
0.00000000 0.20167768 -0.45752171
0.00000000 0.06897612 -0.49521944
0.30782101 0.39192152 -0.04054315
0.37932616 0.30341259 -0.11854316
0.28562582 0.39632460 -0.10651144
0.43246466 0.06560019 -0.24222082
0.42195573 0.19180687 -0.18751928
0.22699524 0.37896770 -0.23421493
0.35355338 0.30075046 -0.18587402
0.25806081 0.39172584 -0.17307651
0.32370594 0.35115492 -0.14800230
0.30782101 -0.39192152 -0.04054315
0.37932616 -0.30341259 -0.11854316
0.28562582 -0.39632460 -0.10651144
0.43246466 -0.06560019 -0.24222082
0.42195573 -0.19180687 -0.18751928
0.22699524 -0.37896770 -0.23421493
0.35355338 -0.30075046 -0.18587402
0.25806081 -0.39172584 -0.17307651
0.32370594 -0.35115492 -0.14800230
0.06560019 -0.24222082 -0.43246466
0.19180687 -0.18751928 -0.42195573
0.10651144 -0.28562582 -0.39632460
0.06582768 -0.17911440 -0.46215230
0.39192152 -0.04054315 -0.30782101
0.30341259 -0.11854316 -0.37932616
0.39632460 -0.10651144 -0.28562582
0.18587402 -0.35355338 -0.30075046
0.23421493 -0.22699524 -0.37896770
0.14800230 -0.32370594 -0.35115492
0.25668773 -0.32328889 -0.28212711
0.17307651 -0.25806081 -0.39172584
0.06653555 -0.04112123 -0.49384418
0.19309369 -0.11933847 -0.44550326
0.06639624 -0.11005852 -0.48319629
0.13204138 -0.15062945 -0.45812207
0.37896770 -0.23421493 -0.22699524
0.30075046 -0.18587402 -0.35355338
0.39172584 -0.17307651 -0.25806081
0.32328889 -0.28212711 -0.25668773
0.35115492 -0.14800230 -0.32370594
0.28212711 -0.25668773 -0.32328889
0.06560019 0.24222082 -0.43246466
0.19180687 0.18751928 -0.42195573
0.10651144 0.28562582 -0.39632460
0.06582768 0.17911440 -0.46215230
0.39192152 0.04054315 -0.30782101
0.30341259 0.11854316 -0.37932616
0.39632460 0.10651144 -0.28562582
0.35564086 0.00000000 -0.35145351
0.18587402 0.35355338 -0.30075046
0.23421493 0.22699524 -0.37896770
0.14800230 0.32370594 -0.35115492
0.25668773 0.32328889 -0.28212711
0.17307651 0.25806081 -0.39172584
0.06653555 0.04112123 -0.49384418
0.19309369 0.11933847 -0.44550326
0.06639624 0.11005852 -0.48319629
0.13320234 0.00000000 -0.48193064
0.13204138 0.15062945 -0.45812207
0.37896770 0.23421493 -0.22699524
0.30075046 0.18587402 -0.35355338
0.39172584 0.17307651 -0.25806081
0.32328889 0.28212711 -0.25668773
0.35115492 0.14800230 -0.32370594
0.28212711 0.25668773 -0.32328889
0.25962925 -0.07821723 -0.42008895
0.25962925 0.07821723 -0.42008895
0.31011978 -0.04057093 -0.39010218
0.19980353 -0.04116179 -0.45649123
0.31011978 0.04057093 -0.39010218
0.19980353 0.04116179 -0.45649123
0.30782101 0.39192152 0.04054315
0.37932616 0.30341259 0.11854316
0.28562582 0.39632460 0.10651144
0.35145351 0.35564086 0.00000000
0.43246466 0.06560019 0.24222082
0.42195573 0.19180687 0.18751928
0.22699524 0.37896770 0.23421493
0.35355338 0.30075046 0.18587402
0.25806081 0.39172584 0.17307651
0.32370594 0.35115492 0.14800230
0.42008895 0.25962925 -0.07821723
0.42008895 0.25962925 0.07821723
0.39010218 0.31011978 -0.04057093
0.39010218 0.31011978 0.04057093
0.30782101 -0.39192152 0.04054315
0.37932616 -0.30341259 0.11854316
0.28562582 -0.39632460 0.10651144
0.35145351 -0.35564086 0.00000000
0.43246466 -0.06560019 0.24222082
0.42195573 -0.19180687 0.18751928
0.22699524 -0.37896770 0.23421493
0.35355338 -0.30075046 0.18587402
0.25806081 -0.39172584 0.17307651
0.32370594 -0.35115492 0.14800230
0.42008895 -0.25962925 -0.07821723
0.42008895 -0.25962925 0.07821723
0.39010218 -0.31011978 -0.04057093
0.39010218 -0.31011978 0.04057093
0.06560019 -0.24222082 0.43246466
0.19180687 -0.18751928 0.42195573
0.10651144 -0.28562582 0.39632460
0.06582768 -0.17911440 0.46215230
0.39192152 -0.04054315 0.30782101
0.30341259 -0.11854316 0.37932616
0.39632460 -0.10651144 0.28562582
0.18587402 -0.35355338 0.30075046
0.23421493 -0.22699524 0.37896770
0.14800230 -0.32370594 0.35115492
0.25668773 -0.32328889 0.28212711
0.17307651 -0.25806081 0.39172584
0.06653555 -0.04112123 0.49384418
0.19309369 -0.11933847 0.44550326
0.06639624 -0.11005852 0.48319629
0.13204138 -0.15062945 0.45812207
0.37896770 -0.23421493 0.22699524
0.30075046 -0.18587402 0.35355338
0.39172584 -0.17307651 0.25806081
0.32328889 -0.28212711 0.25668773
0.35115492 -0.14800230 0.32370594
0.28212711 -0.25668773 0.32328889
0.06560019 0.24222082 0.43246466
0.19180687 0.18751928 0.42195573
0.10651144 0.28562582 0.39632460
0.06582768 0.17911440 0.46215230
0.39192152 0.04054315 0.30782101
0.30341259 0.11854316 0.37932616
0.39632460 0.10651144 0.28562582
0.35564086 0.00000000 0.35145351
0.18587402 0.35355338 0.30075046
0.23421493 0.22699524 0.37896770
0.14800230 0.32370594 0.35115492
0.25668773 0.32328889 0.28212711
0.17307651 0.25806081 0.39172584
0.06653555 0.04112123 0.49384418
0.19309369 0.11933847 0.44550326
0.06639624 0.11005852 0.48319629
0.13320234 0.00000000 0.48193064
0.13204138 0.15062945 0.45812207
0.37896770 0.23421493 0.22699524
0.30075046 0.18587402 0.35355338
0.39172584 0.17307651 0.25806081
0.32328889 0.28212711 0.25668773
0.35115492 0.14800230 0.32370594
0.28212711 0.25668773 0.32328889
0.25962925 -0.07821723 0.42008895
0.25962925 0.07821723 0.42008895
0.31011978 -0.04057093 0.39010218
0.19980353 -0.04116179 0.45649123
0.31011978 0.04057093 0.39010218
0.19980353 0.04116179 0.45649123
0.45752171 0.00000000 -0.20167768
0.49521944 0.00000000 -0.06897612
0.46215230 0.06582768 -0.17911440
0.46215230 -0.06582768 -0.17911440
0.45752171 0.00000000 0.20167768
0.49521944 0.00000000 0.06897612
0.46215230 0.06582768 0.17911440
0.46215230 -0.06582768 0.17911440
0.44550326 0.19309369 -0.11933847
0.49384418 0.06653555 -0.04112123
0.45812207 0.13204138 -0.15062945
0.45649123 0.19980353 -0.04116179
0.48319629 0.06639624 -0.11005852
0.44550326 -0.19309369 -0.11933847
0.49384418 -0.06653555 -0.04112123
0.45812207 -0.13204138 -0.15062945
0.45649123 -0.19980353 -0.04116179
0.48319629 -0.06639624 -0.11005852
0.44550326 0.19309369 0.11933847
0.49384418 0.06653555 0.04112123
0.45812207 0.13204138 0.15062945
0.45649123 0.19980353 0.04116179
0.48319629 0.06639624 0.11005852
0.48193064 0.13320234 0.00000000
0.44550326 -0.19309369 0.11933847
0.49384418 -0.06653555 0.04112123
0.45812207 -0.13204138 0.15062945
0.45649123 -0.19980353 0.04116179
0.48319629 -0.06639624 0.11005852
0.48193064 -0.13320234 0.00000000
-0.30782101 0.39192152 -0.04054315
-0.37932616 0.30341259 -0.11854316
-0.28562582 0.39632460 -0.10651144
-0.43246466 0.06560019 -0.24222082
-0.42195573 0.19180687 -0.18751928
-0.22699524 0.37896770 -0.23421493
-0.35355338 0.30075046 -0.18587402
-0.25806081 0.39172584 -0.17307651
-0.32370594 0.35115492 -0.14800230
-0.30782101 -0.39192152 -0.04054315
-0.37932616 -0.30341259 -0.11854316
-0.28562582 -0.39632460 -0.10651144
-0.43246466 -0.06560019 -0.24222082
-0.42195573 -0.19180687 -0.18751928
-0.22699524 -0.37896770 -0.23421493
-0.35355338 -0.30075046 -0.18587402
-0.25806081 -0.39172584 -0.17307651
-0.32370594 -0.35115492 -0.14800230
-0.06560019 -0.24222082 -0.43246466
-0.19180687 -0.18751928 -0.42195573
-0.10651144 -0.28562582 -0.39632460
-0.06582768 -0.17911440 -0.46215230
-0.39192152 -0.04054315 -0.30782101
-0.30341259 -0.11854316 -0.37932616
-0.39632460 -0.10651144 -0.28562582
-0.18587402 -0.35355338 -0.30075046
-0.23421493 -0.22699524 -0.37896770
-0.14800230 -0.32370594 -0.35115492
-0.25668773 -0.32328889 -0.28212711
-0.17307651 -0.25806081 -0.39172584
-0.06653555 -0.04112123 -0.49384418
-0.19309369 -0.11933847 -0.44550326
-0.06639624 -0.11005852 -0.48319629
-0.13204138 -0.15062945 -0.45812207
-0.37896770 -0.23421493 -0.22699524
-0.30075046 -0.18587402 -0.35355338
-0.39172584 -0.17307651 -0.25806081
-0.32328889 -0.28212711 -0.25668773
-0.35115492 -0.14800230 -0.32370594
-0.28212711 -0.25668773 -0.32328889
-0.06560019 0.24222082 -0.43246466
-0.19180687 0.18751928 -0.42195573
-0.10651144 0.28562582 -0.39632460
-0.06582768 0.17911440 -0.46215230
-0.39192152 0.04054315 -0.30782101
-0.30341259 0.11854316 -0.37932616
-0.39632460 0.10651144 -0.28562582
-0.35564086 0.00000000 -0.35145351
-0.18587402 0.35355338 -0.30075046
-0.23421493 0.22699524 -0.37896770
-0.14800230 0.32370594 -0.35115492
-0.25668773 0.32328889 -0.28212711
-0.17307651 0.25806081 -0.39172584
-0.06653555 0.04112123 -0.49384418
-0.19309369 0.11933847 -0.44550326
-0.06639624 0.11005852 -0.48319629
-0.13320234 0.00000000 -0.48193064
-0.13204138 0.15062945 -0.45812207
-0.37896770 0.23421493 -0.22699524
-0.30075046 0.18587402 -0.35355338
-0.39172584 0.17307651 -0.25806081
-0.32328889 0.28212711 -0.25668773
-0.35115492 0.14800230 -0.32370594
-0.28212711 0.25668773 -0.32328889
-0.25962925 -0.07821723 -0.42008895
-0.25962925 0.07821723 -0.42008895
-0.31011978 -0.04057093 -0.39010218
-0.19980353 -0.04116179 -0.45649123
-0.31011978 0.04057093 -0.39010218
-0.19980353 0.04116179 -0.45649123
-0.30782101 0.39192152 0.04054315
-0.37932616 0.30341259 0.11854316
-0.28562582 0.39632460 0.10651144
-0.35145351 0.35564086 0.00000000
-0.43246466 0.06560019 0.24222082
-0.42195573 0.19180687 0.18751928
-0.22699524 0.37896770 0.23421493
-0.35355338 0.30075046 0.18587402
-0.25806081 0.39172584 0.17307651
-0.32370594 0.35115492 0.14800230
-0.42008895 0.25962925 -0.07821723
-0.42008895 0.25962925 0.07821723
-0.39010218 0.31011978 -0.04057093
-0.39010218 0.31011978 0.04057093
-0.30782101 -0.39192152 0.04054315
-0.37932616 -0.30341259 0.11854316
-0.28562582 -0.39632460 0.10651144
-0.35145351 -0.35564086 0.00000000
-0.43246466 -0.06560019 0.24222082
-0.42195573 -0.19180687 0.18751928
-0.22699524 -0.37896770 0.23421493
-0.35355338 -0.30075046 0.18587402
-0.25806081 -0.39172584 0.17307651
-0.32370594 -0.35115492 0.14800230
-0.42008895 -0.25962925 -0.07821723
-0.42008895 -0.25962925 0.07821723
-0.39010218 -0.31011978 -0.04057093
-0.39010218 -0.31011978 0.04057093
-0.06560019 -0.24222082 0.43246466
-0.19180687 -0.18751928 0.42195573
-0.10651144 -0.28562582 0.39632460
-0.06582768 -0.17911440 0.46215230
-0.39192152 -0.04054315 0.30782101
-0.30341259 -0.11854316 0.37932616
-0.39632460 -0.10651144 0.28562582
-0.18587402 -0.35355338 0.30075046
-0.23421493 -0.22699524 0.37896770
-0.14800230 -0.32370594 0.35115492
-0.25668773 -0.32328889 0.28212711
-0.17307651 -0.25806081 0.39172584
-0.06653555 -0.04112123 0.49384418
-0.19309369 -0.11933847 0.44550326
-0.06639624 -0.11005852 0.48319629
-0.13204138 -0.15062945 0.45812207
-0.37896770 -0.23421493 0.22699524
-0.30075046 -0.18587402 0.35355338
-0.39172584 -0.17307651 0.25806081
-0.32328889 -0.28212711 0.25668773
-0.35115492 -0.14800230 0.32370594
-0.28212711 -0.25668773 0.32328889
-0.06560019 0.24222082 0.43246466
-0.19180687 0.18751928 0.42195573
-0.10651144 0.28562582 0.39632460
-0.06582768 0.17911440 0.46215230
-0.39192152 0.04054315 0.30782101
-0.30341259 0.11854316 0.37932616
-0.39632460 0.10651144 0.28562582
-0.35564086 0.00000000 0.35145351
-0.18587402 0.35355338 0.30075046
-0.23421493 0.22699524 0.37896770
-0.14800230 0.32370594 0.35115492
-0.25668773 0.32328889 0.28212711
-0.17307651 0.25806081 0.39172584
-0.06653555 0.04112123 0.49384418
-0.19309369 0.11933847 0.44550326
-0.06639624 0.11005852 0.48319629
-0.13320234 0.00000000 0.48193064
-0.13204138 0.15062945 0.45812207
-0.37896770 0.23421493 0.22699524
-0.30075046 0.18587402 0.35355338
-0.39172584 0.17307651 0.25806081
-0.32328889 0.28212711 0.25668773
-0.35115492 0.14800230 0.32370594
-0.28212711 0.25668773 0.32328889
-0.25962925 -0.07821723 0.42008895
-0.25962925 0.07821723 0.42008895
-0.31011978 -0.04057093 0.39010218
-0.19980353 -0.04116179 0.45649123
-0.31011978 0.04057093 0.39010218
-0.19980353 0.04116179 0.45649123
-0.45752171 0.00000000 -0.20167768
-0.49521944 0.00000000 -0.06897612
-0.46215230 0.06582768 -0.17911440
-0.46215230 -0.06582768 -0.17911440
-0.45752171 0.00000000 0.20167768
-0.49521944 0.00000000 0.06897612
-0.46215230 0.06582768 0.17911440
-0.46215230 -0.06582768 0.17911440
-0.44550326 0.19309369 -0.11933847
-0.49384418 0.06653555 -0.04112123
-0.45812207 0.13204138 -0.15062945
-0.45649123 0.19980353 -0.04116179
-0.48319629 0.06639624 -0.11005852
-0.44550326 -0.19309369 -0.11933847
-0.49384418 -0.06653555 -0.04112123
-0.45812207 -0.13204138 -0.15062945
-0.45649123 -0.19980353 -0.04116179
-0.48319629 -0.06639624 -0.11005852
-0.44550326 0.19309369 0.11933847
-0.49384418 0.06653555 0.04112123
-0.45812207 0.13204138 0.15062945
-0.45649123 0.19980353 0.04116179
-0.48319629 0.06639624 0.11005852
-0.48193064 0.13320234 0.00000000
-0.44550326 -0.19309369 0.11933847
-0.49384418 -0.06653555 0.04112123
-0.45812207 -0.13204138 0.15062945
-0.45649123 -0.19980353 0.04116179
-0.48319629 -0.06639624 0.11005852
-0.48193064 -0.13320234 0.00000000
3 0 532 196
3 532 137 534
3 196 534 53
3 532 534 196
3 137 533 541
3 533 37 539
3 541 539 139
3 533 539 541
3 53 540 197
3 540 139 538
3 197 538 16
3 540 538 197
3 137 541 534
3 541 139 540
3 534 540 53
3 541 540 534
3 37 537 600
3 537 138 602
3 600 602 154
3 537 602 600
3 138 536 588
3 536 11 586
3 588 586 151
3 536 586 588
3 154 604 601
3 604 151 587
3 601 587 40
3 604 587 601
3 138 588 602
3 588 151 604
3 602 604 154
3 588 604 602
3 16 590 200
3 590 152 592
3 200 592 54
3 590 592 200
3 152 591 594
3 591 40 583
3 594 583 150
3 591 583 594
3 54 584 199
3 584 150 582
3 199 582 5
3 584 582 199
3 152 594 592
3 594 150 584
3 592 584 54
3 594 584 592
3 37 600 539
3 600 154 603
3 539 603 139
3 600 603 539
3 154 601 605
3 601 40 591
3 605 591 152
3 601 591 605
3 139 593 538
3 593 152 590
3 538 590 16
3 593 590 538
3 154 605 603
3 605 152 593
3 603 593 139
3 605 593 603
3 0 196 162
3 196 53 198
3 162 198 42
3 196 198 162
3 53 197 204
3 197 16 202
3 204 202 55
3 197 202 204
3 42 203 163
3 203 55 201
3 163 201 12
3 203 201 163
3 53 204 198
3 204 55 203
3 198 203 42
3 204 203 198
3 16 200 216
3 200 54 218
3 216 218 59
3 200 218 216
3 54 199 210
3 199 5 208
3 210 208 57
3 199 208 210
3 59 220 217
3 220 57 209
3 217 209 17
3 220 209 217
3 54 210 218
3 210 57 220
3 218 220 59
3 210 220 218
3 12 211 165
3 211 58 213
3 165 213 43
3 211 213 165
3 58 212 215
3 212 17 206
3 215 206 56
3 212 206 215
3 43 207 164
3 207 56 205
3 164 205 1
3 207 205 164
3 58 215 213
3 215 56 207
3 213 207 43
3 215 207 213
3 16 216 202
3 216 59 219
3 202 219 55
3 216 219 202
3 59 217 221
3 217 17 212
3 221 212 58
3 217 212 221
3 55 214 201
3 214 58 211
3 201 211 12
3 214 211 201
3 59 221 219
3 221 58 214
3 219 214 55
3 221 214 219
3 0 162 252
3 162 42 254
3 252 254 69
3 162 254 252
3 42 163 259
3 163 12 257
3 259 257 71
3 163 257 259
3 69 260 253
3 260 71 258
3 253 258 21
3 260 258 253
3 42 259 254
3 259 71 260
3 254 260 69
3 259 260 254
3 12 165 267
3 165 43 269
3 267 269 74
3 165 269 267
3 43 164 263
3 164 1 261
3 263 261 72
3 164 261 263
3 74 271 268
3 271 72 262
3 268 262 22
3 271 262 268
3 43 263 269
3 263 72 271
3 269 271 74
3 263 271 269
3 21 272 256
3 272 75 274
3 256 274 70
3 272 274 256
3 75 273 276
3 273 22 265
3 276 265 73
3 273 265 276
3 70 266 255
3 266 73 264
3 255 264 7
3 266 264 255
3 75 276 274
3 276 73 266
3 274 266 70
3 276 266 274
3 12 267 257
3 267 74 270
3 257 270 71
3 267 270 257
3 74 268 277
3 268 22 273
3 277 273 75
3 268 273 277
3 71 275 258
3 275 75 272
3 258 272 21
3 275 272 258
3 74 277 270
3 277 75 275
3 270 275 71
3 277 275 270
3 0 252 462
3 252 69 464
3 462 464 120
3 252 464 462
3 69 253 469
3 253 21 467
3 469 467 122
3 253 467 469
3 120 470 463
3 470 122 468
3 463 468 33
3 470 468 463
3 69 469 464
3 469 122 470
3 464 470 120
3 469 470 464
3 21 256 510
3 256 70 512
3 510 512 133
3 256 512 510
3 70 255 504
3 255 7 502
3 504 502 131
3 255 502 504
3 133 514 511
3 514 131 503
3 511 503 36
3 514 503 511
3 70 504 512
3 504 131 514
3 512 514 133
3 504 514 512
3 33 520 466
3 520 135 522
3 466 522 121
3 520 522 466
3 135 521 524
3 521 36 507
3 524 507 132
3 521 507 524
3 121 508 465
3 508 132 506
3 465 506 10
3 508 506 465
3 135 524 522
3 524 132 508
3 522 508 121
3 524 508 522
3 21 510 467
3 510 133 513
3 467 513 122
3 510 513 467
3 133 511 525
3 511 36 521
3 525 521 135
3 511 521 525
3 122 523 468
3 523 135 520
3 468 520 33
3 523 520 468
3 133 525 513
3 525 135 523
3 513 523 122
3 525 523 513
3 0 462 532
3 462 120 535
3 532 535 137
3 462 535 532
3 120 463 544
3 463 33 542
3 544 542 140
3 463 542 544
3 137 545 533
3 545 140 543
3 533 543 37
3 545 543 533
3 120 544 535
3 544 140 545
3 535 545 137
3 544 545 535
3 33 466 620
3 466 121 622
3 620 622 158
3 466 622 620
3 121 465 614
3 465 10 612
3 614 612 156
3 465 612 614
3 158 624 621
3 624 156 613
3 621 613 41
3 624 613 621
3 121 614 622
3 614 156 624
3 622 624 158
3 614 624 622
3 37 630 537
3 630 160 632
3 537 632 138
3 630 632 537
3 160 631 634
3 631 41 617
3 634 617 157
3 631 617 634
3 138 618 536
3 618 157 616
3 536 616 11
3 618 616 536
3 160 634 632
3 634 157 618
3 632 618 138
3 634 618 632
3 33 620 542
3 620 158 623
3 542 623 140
3 620 623 542
3 158 621 635
3 621 41 631
3 635 631 160
3 621 631 635
3 140 633 543
3 633 160 630
3 543 630 37
3 633 630 543
3 158 635 623
3 635 160 633
3 623 633 140
3 635 633 623
3 1 205 352
3 205 56 354
3 352 354 95
3 205 354 352
3 56 206 360
3 206 17 358
3 360 358 97
3 206 358 360
3 95 361 353
3 361 97 359
3 353 359 28
3 361 359 353
3 56 360 354
3 360 97 361
3 354 361 95
3 360 361 354
3 17 209 410
3 209 57 412
3 410 412 110
3 209 412 410
3 57 208 404
3 208 5 402
3 404 402 108
3 208 402 404
3 110 414 411
3 414 108 403
3 411 403 31
3 414 403 411
3 57 404 412
3 404 108 414
3 412 414 110
3 404 414 412
3 28 420 357
3 420 112 422
3 357 422 96
3 420 422 357
3 112 421 424
3 421 31 407
3 424 407 109
3 421 407 424
3 96 408 356
3 408 109 406
3 356 406 9
3 408 406 356
3 112 424 422
3 424 109 408
3 422 408 96
3 424 408 422
3 17 410 358
3 410 110 413
3 358 413 97
3 410 413 358
3 110 411 425
3 411 31 421
3 425 421 112
3 411 421 425
3 97 423 359
3 423 112 420
3 359 420 28
3 423 420 359
3 110 425 413
3 425 112 423
3 413 423 97
3 425 423 413
3 5 582 224
3 582 150 585
3 224 585 61
3 582 585 224
3 150 583 599
3 583 40 596
3 599 596 153
3 583 596 599
3 61 597 225
3 597 153 595
3 225 595 18
3 597 595 225
3 150 599 585
3 599 153 597
3 585 597 61
3 599 597 585
3 40 587 607
3 587 151 610
3 607 610 155
3 587 610 607
3 151 586 589
3 586 11 564
3 589 564 146
3 586 564 589
3 155 608 606
3 608 146 565
3 606 565 39
3 608 565 606
3 151 589 610
3 589 146 608
3 610 608 155
3 589 608 610
3 18 572 223
3 572 148 574
3 223 574 60
3 572 574 223
3 148 573 575
3 573 39 561
3 575 561 145
3 573 561 575
3 60 563 222
3 563 145 560
3 222 560 4
3 563 560 222
3 148 575 574
3 575 145 563
3 574 563 60
3 575 563 574
3 40 607 596
3 607 155 611
3 596 611 153
3 607 611 596
3 155 606 609
3 606 39 573
3 609 573 148
3 606 573 609
3 153 598 595
3 598 148 572
3 595 572 18
3 598 572 595
3 155 609 611
3 609 148 598
3 611 598 153
3 609 598 611
3 11 616 550
3 616 157 619
3 550 619 142
3 616 619 550
3 157 617 640
3 617 41 637
3 640 637 161
3 617 637 640
3 142 638 551
3 638 161 636
3 551 636 38
3 638 636 551
3 157 640 619
3 640 161 638
3 619 638 142
3 640 638 619
3 41 613 626
3 613 156 629
3 626 629 159
3 613 629 626
3 156 612 615
3 612 10 474
3 615 474 124
3 612 474 615
3 159 627 625
3 627 124 475
3 625 475 34
3 627 475 625
3 156 615 629
3 615 124 627
3 629 627 159
3 615 627 629
3 38 557 547
3 557 144 559
3 547 559 141
3 557 559 547
3 144 556 558
3 556 34 472
3 558 472 123
3 556 472 558
3 141 549 546
3 549 123 471
3 546 471 2
3 549 471 546
3 144 558 559
3 558 123 549
3 559 549 141
3 558 549 559
3 41 626 637
3 626 159 641
3 637 641 161
3 626 641 637
3 159 625 628
3 625 34 556
3 628 556 144
3 625 556 628
3 161 639 636
3 639 144 557
3 636 557 38
3 639 557 636
3 159 628 641
3 628 144 639
3 641 639 161
3 628 639 641
3 10 506 484
3 506 132 509
3 484 509 127
3 506 509 484
3 132 507 530
3 507 36 527
3 530 527 136
3 507 527 530
3 127 528 485
3 528 136 526
3 485 526 35
3 528 526 485
3 132 530 509
3 530 136 528
3 509 528 127
3 530 528 509
3 36 503 516
3 503 131 519
3 516 519 134
3 503 519 516
3 131 502 505
3 502 7 280
3 505 280 77
3 502 280 505
3 134 517 515
3 517 77 281
3 515 281 23
3 517 281 515
3 131 505 519
3 505 77 517
3 519 517 134
3 505 517 519
3 35 493 481
3 493 129 495
3 481 495 126
3 493 495 481
3 129 492 494
3 492 23 279
3 494 279 76
3 492 279 494
3 126 483 480
3 483 76 278
3 480 278 6
3 483 278 480
3 129 494 495
3 494 76 483
3 495 483 126
3 494 483 495
3 36 516 527
3 516 134 531
3 527 531 136
3 516 531 527
3 134 515 518
3 515 23 492
3 518 492 129
3 515 492 518
3 136 529 526
3 529 129 493
3 526 493 35
3 529 493 526
3 134 518 531
3 518 129 529
3 531 529 136
3 518 529 531
3 7 264 322
3 264 73 324
3 322 324 89
3 264 324 322
3 73 265 332
3 265 22 330
3 332 330 91
3 265 330 332
3 89 334 323
3 334 91 331
3 323 331 27
3 334 331 323
3 73 332 324
3 332 91 334
3 324 334 89
3 332 334 324
3 22 262 287
3 262 72 289
3 287 289 80
3 262 289 287
3 72 261 284
3 261 1 282
3 284 282 78
3 261 282 284
3 80 290 288
3 290 78 283
3 288 283 24
3 290 283 288
3 72 284 289
3 284 78 290
3 289 290 80
3 284 290 289
3 27 341 327
3 341 93 344
3 327 344 90
3 341 344 327
3 93 340 342
3 340 24 286
3 342 286 79
3 340 286 342
3 90 328 326
3 328 79 285
3 326 285 8
3 328 285 326
3 93 342 344
3 342 79 328
3 344 328 90
3 342 328 344
3 22 287 330
3 287 80 333
3 330 333 91
3 287 333 330
3 80 288 343
3 288 24 340
3 343 340 93
3 288 340 343
3 91 345 331
3 345 93 341
3 331 341 27
3 345 341 331
3 80 343 333
3 343 93 345
3 333 345 91
3 343 345 333
3 3 366 179
3 366 99 368
3 179 368 49
3 366 368 179
3 99 367 375
3 367 29 373
3 375 373 101
3 367 373 375
3 49 374 180
3 374 101 372
3 180 372 15
3 374 372 180
3 99 375 368
3 375 101 374
3 368 374 49
3 375 374 368
3 29 371 396
3 371 100 398
3 396 398 107
3 371 398 396
3 100 370 386
3 370 9 384
3 386 384 104
3 370 384 386
3 107 400 397
3 400 104 385
3 397 385 30
3 400 385 397
3 100 386 398
3 386 104 400
3 398 400 107
3 386 400 398
3 15 387 183
3 387 105 389
3 183 389 50
3 387 389 183
3 105 388 391
3 388 30 381
3 391 381 103
3 388 381 391
3 50 382 182
3 382 103 380
3 182 380 4
3 382 380 182
3 105 391 389
3 391 103 382
3 389 382 50
3 391 382 389
3 29 396 373
3 396 107 399
3 373 399 101
3 396 399 373
3 107 397 401
3 397 30 388
3 401 388 105
3 397 388 401
3 101 390 372
3 390 105 387
3 372 387 15
3 390 387 372
3 107 401 399
3 401 105 390
3 399 390 101
3 401 390 399
3 3 179 168
3 179 49 181
3 168 181 45
3 179 181 168
3 49 180 189
3 180 15 186
3 189 186 51
3 180 186 189
3 45 187 169
3 187 51 185
3 169 185 13
3 187 185 169
3 49 189 181
3 189 51 187
3 181 187 45
3 189 187 181
3 15 183 191
3 183 50 194
3 191 194 52
3 183 194 191
3 50 182 184
3 182 4 173
3 184 173 47
3 182 173 184
3 52 192 190
3 192 47 174
3 190 174 14
3 192 174 190
3 50 184 194
3 184 47 192
3 194 192 52
3 184 192 194
3 13 175 167
3 175 48 177
3 167 177 44
3 175 177 167
3 48 176 178
3 176 14 171
3 178 171 46
3 176 171 178
3 44 172 166
3 172 46 170
3 166 170 2
3 172 170 166
3 48 178 177
3 178 46 172
3 177 172 44
3 178 172 177
3 15 191 186
3 191 52 195
3 186 195 51
3 191 195 186
3 52 190 193
3 190 14 176
3 193 176 48
3 190 176 193
3 51 188 185
3 188 48 175
3 185 175 13
3 188 175 185
3 52 193 195
3 193 48 188
3 195 188 51
3 193 188 195
3 3 168 235
3 168 45 237
3 235 237 65
3 168 237 235
3 45 169 243
3 169 13 241
3 243 241 67
3 169 241 243
3 65 245 236
3 245 67 242
3 236 242 20
3 245 242 236
3 45 243 237
3 243 67 245
3 237 245 65
3 243 245 237
3 13 167 231
3 167 44 233
3 231 233 64
3 167 233 231
3 44 166 228
3 166 2 226
3 228 226 62
3 166 226 228
3 64 234 232
3 234 62 227
3 232 227 19
3 234 227 232
3 44 228 233
3 228 62 234
3 233 234 64
3 228 234 233
3 20 247 239
3 247 68 250
3 239 250 66
3 247 250 239
3 68 246 248
3 246 19 230
3 248 230 63
3 246 230 248
3 66 240 238
3 240 63 229
3 238 229 6
3 240 229 238
3 68 248 250
3 248 63 240
3 250 240 66
3 248 240 250
3 13 231 241
3 231 64 244
3 241 244 67
3 231 244 241
3 64 232 249
3 232 19 246
3 249 246 68
3 232 246 249
3 67 251 242
3 251 68 247
3 242 247 20
3 251 247 242
3 64 249 244
3 249 68 251
3 244 251 67
3 249 251 244
3 3 235 291
3 235 65 293
3 291 293 81
3 235 293 291
3 65 236 298
3 236 20 296
3 298 296 83
3 236 296 298
3 81 299 292
3 299 83 297
3 292 297 25
3 299 297 292
3 65 298 293
3 298 83 299
3 293 299 81
3 298 299 293
3 20 239 307
3 239 66 309
3 307 309 86
3 239 309 307
3 66 238 302
3 238 6 300
3 302 300 84
3 238 300 302
3 86 311 308
3 311 84 301
3 308 301 26
3 311 301 308
3 66 302 309
3 302 84 311
3 309 311 86
3 302 311 309
3 25 316 295
3 316 88 318
3 295 318 82
3 316 318 295
3 88 317 320
3 317 26 305
3 320 305 85
3 317 305 320
3 82 306 294
3 306 85 304
3 294 304 8
3 306 304 294
3 88 320 318
3 320 85 306
3 318 306 82
3 320 306 318
3 20 307 296
3 307 86 310
3 296 310 83
3 307 310 296
3 86 308 321
3 308 26 317
3 321 317 88
3 308 317 321
3 83 319 297
3 319 88 316
3 297 316 25
3 319 316 297
3 86 321 310
3 321 88 319
3 310 319 83
3 321 319 310
3 3 291 366
3 291 81 369
3 366 369 99
3 291 369 366
3 81 292 378
3 292 25 376
3 378 376 102
3 292 376 378
3 99 379 367
3 379 102 377
3 367 377 29
3 379 377 367
3 81 378 369
3 378 102 379
3 369 379 99
3 378 379 369
3 25 295 445
3 295 82 447
3 445 447 117
3 295 447 445
3 82 294 435
3 294 8 432
3 435 432 114
3 294 432 435
3 117 449 446
3 449 114 433
3 446 433 32
3 449 433 446
3 82 435 447
3 435 114 449
3 447 449 117
3 435 449 447
3 29 456 371
3 456 119 458
3 371 458 100
3 456 458 371
3 119 457 460
3 457 32 437
3 460 437 115
3 457 437 460
3 100 439 370
3 439 115 436
3 370 436 9
3 439 436 370
3 119 460 458
3 460 115 439
3 458 439 100
3 460 439 458
3 25 445 376
3 445 117 448
3 376 448 102
3 445 448 376
3 117 446 461
3 446 32 457
3 461 457 119
3 446 457 461
3 102 459 377
3 459 119 456
3 377 456 29
3 459 456 377
3 117 461 448
3 461 119 459
3 448 459 102
3 461 459 448
3 4 380 222
3 380 103 383
3 222 383 60
3 380 383 222
3 103 381 395
3 381 30 393
3 395 393 106
3 381 393 395
3 60 394 223
3 394 106 392
3 223 392 18
3 394 392 223
3 103 395 383
3 395 106 394
3 383 394 60
3 395 394 383
3 30 385 426
3 385 104 428
3 426 428 113
3 385 428 426
3 104 384 409
3 384 9 406
3 409 406 109
3 384 406 409
3 113 430 427
3 430 109 407
3 427 407 31
3 430 407 427
3 104 409 428
3 409 109 430
3 428 430 113
3 409 430 428
3 18 415 225
3 415 111 417
3 225 417 61
3 415 417 225
3 111 416 419
3 416 31 403
3 419 403 108
3 416 403 419
3 61 405 224
3 405 108 402
3 224 402 5
3 405 402 224
3 111 419 417
3 419 108 405
3 417 405 61
3 419 405 417
3 30 426 393
3 426 113 429
3 393 429 106
3 426 429 393
3 113 427 431
3 427 31 416
3 431 416 111
3 427 416 431
3 106 418 392
3 418 111 415
3 392 415 18
3 418 415 392
3 113 431 429
3 431 111 418
3 429 418 106
3 431 418 429
3 2 170 546
3 170 46 548
3 546 548 141
3 170 548 546
3 46 171 554
3 171 14 552
3 554 552 143
3 171 552 554
3 141 555 547
3 555 143 553
3 547 553 38
3 555 553 547
3 46 554 548
3 554 143 555
3 548 555 141
3 554 555 548
3 14 174 567
3 174 47 569
3 567 569 147
3 174 569 567
3 47 173 562
3 173 4 560
3 562 560 145
3 173 560 562
3 147 571 568
3 571 145 561
3 568 561 39
3 571 561 568
3 47 562 569
3 562 145 571
3 569 571 147
3 562 571 569
3 38 576 551
3 576 149 578
3 551 578 142
3 576 578 551
3 149 577 580
3 577 39 565
3 580 565 146
3 577 565 580
3 142 566 550
3 566 146 564
3 550 564 11
3 566 564 550
3 149 580 578
3 580 146 566
3 578 566 142
3 580 566 578
3 14 567 552
3 567 147 570
3 552 570 143
3 567 570 552
3 147 568 581
3 568 39 577
3 581 577 149
3 568 577 581
3 143 579 553
3 579 149 576
3 553 576 38
3 579 576 553
3 147 581 570
3 581 149 579
3 570 579 143
3 581 579 570
3 6 229 480
3 229 63 482
3 480 482 126
3 229 482 480
3 63 230 489
3 230 19 487
3 489 487 128
3 230 487 489
3 126 491 481
3 491 128 488
3 481 488 35
3 491 488 481
3 63 489 482
3 489 128 491
3 482 491 126
3 489 491 482
3 19 227 476
3 227 62 478
3 476 478 125
3 227 478 476
3 62 226 473
3 226 2 471
3 473 471 123
3 226 471 473
3 125 479 477
3 479 123 472
3 477 472 34
3 479 472 477
3 62 473 478
3 473 123 479
3 478 479 125
3 473 479 478
3 35 497 485
3 497 130 500
3 485 500 127
3 497 500 485
3 130 496 498
3 496 34 475
3 498 475 124
3 496 475 498
3 127 486 484
3 486 124 474
3 484 474 10
3 486 474 484
3 130 498 500
3 498 124 486
3 500 486 127
3 498 486 500
3 19 476 487
3 476 125 490
3 487 490 128
3 476 490 487
3 125 477 499
3 477 34 496
3 499 496 130
3 477 496 499
3 128 501 488
3 501 130 497
3 488 497 35
3 501 497 488
3 125 499 490
3 499 130 501
3 490 501 128
3 499 501 490
3 8 304 326
3 304 85 329
3 326 329 90
3 304 329 326
3 85 305 348
3 305 26 346
3 348 346 94
3 305 346 348
3 90 350 327
3 350 94 347
3 327 347 27
3 350 347 327
3 85 348 329
3 348 94 350
3 329 350 90
3 348 350 329
3 26 301 313
3 301 84 315
3 313 315 87
3 301 315 313
3 84 300 303
3 300 6 278
3 303 278 76
3 300 278 303
3 87 314 312
3 314 76 279
3 312 279 23
3 314 279 312
3 84 303 315
3 303 76 314
3 315 314 87
3 303 314 315
3 27 336 323
3 336 92 339
3 323 339 89
3 336 339 323
3 92 335 337
3 335 23 281
3 337 281 77
3 335 281 337
3 89 325 322
3 325 77 280
3 322 280 7
3 325 280 322
3 92 337 339
3 337 77 325
3 339 325 89
3 337 325 339
3 26 313 346
3 313 87 349
3 346 349 94
3 313 349 346
3 87 312 338
3 312 23 335
3 338 335 92
3 312 335 338
3 94 351 347
3 351 92 336
3 347 336 27
3 351 336 347
3 87 338 349
3 338 92 351
3 349 351 94
3 338 351 349
3 9 436 356
3 436 115 438
3 356 438 96
3 436 438 356
3 115 437 454
3 437 32 451
3 454 451 118
3 437 451 454
3 96 452 357
3 452 118 450
3 357 450 28
3 452 450 357
3 115 454 438
3 454 118 452
3 438 452 96
3 454 452 438
3 32 433 441
3 433 114 444
3 441 444 116
3 433 444 441
3 114 432 434
3 432 8 285
3 434 285 79
3 432 285 434
3 116 442 440
3 442 79 286
3 440 286 24
3 442 286 440
3 114 434 444
3 434 79 442
3 444 442 116
3 434 442 444
3 28 363 353
3 363 98 365
3 353 365 95
3 363 365 353
3 98 362 364
3 362 24 283
3 364 283 78
3 362 283 364
3 95 355 352
3 355 78 282
3 352 282 1
3 355 282 352
3 98 364 365
3 364 78 355
3 365 355 95
3 364 355 365
3 32 441 451
3 441 116 455
3 451 455 118
3 441 455 451
3 116 440 443
3 440 24 362
3 443 362 98
3 440 362 443
3 118 453 450
3 453 98 363
3 450 363 28
3 453 363 450
3 116 443 455
3 443 98 453
3 455 453 118
3 443 453 455